<?xml version="1.0" encoding="UTF-8"?>
<svg version="1.1" xmlns="http://www.w3.org/2000/svg" width="267" height="267">
<path d="M0 0 C1.0881601 0.00131424 1.0881601 0.00131424 2.19830322 0.00265503 C40.61041721 0.15524748 72.69881211 16.14613707 99.625 42.9921875 C122.74505585 67.34049631 134.47353146 100.08469575 134.375 133.375 C134.37412384 134.10044006 134.37324768 134.82588013 134.37234497 135.57330322 C134.21975252 173.98541721 118.22886293 206.07381211 91.3828125 233 C67.03450369 256.12005585 34.29030425 267.84853146 1 267.75 C0.27455994 267.74912384 -0.45088013 267.74824768 -1.19830322 267.74734497 C-39.61041721 267.59475252 -71.69881211 251.60386293 -98.625 224.7578125 C-121.74505585 200.40950369 -133.47353146 167.66530425 -133.375 134.375 C-133.37412384 133.64955994 -133.37324768 132.92411987 -133.37234497 132.17669678 C-133.21975252 93.76458279 -117.22886293 61.67618789 -90.3828125 34.75 C-66.03450369 11.62994415 -33.29030425 -0.09853146 0 0 Z " fill="#FEFEFE" transform="translate(133,-0.375)"/>
<path d="M0 0 C36.45714286 0 36.45714286 0 44.3125 5.1875 C49.05609512 10.15172745 51.21465775 14.51001266 51.4375 21.4375 C51.0855547 29.14830164 49.81694682 34.72673445 44 40.0625 C40.4829932 43 40.4829932 43 37 43 C37.4846875 43.86802246 37.969375 44.73604492 38.46875 45.63037109 C40.26207947 48.84464129 42.04984986 52.06197437 43.8359375 55.28027344 C44.61045928 56.67402279 45.3864959 58.06693142 46.1640625 59.45898438 C47.28001726 61.45745437 48.39052915 63.45886237 49.5 65.4609375 C49.84998047 66.08495453 50.19996094 66.70897156 50.56054688 67.35189819 C53 71.77225659 53 71.77225659 53 74 C49.7 74 46.4 74 43 74 C42.65219482 73.35973877 42.30438965 72.71947754 41.94604492 72.05981445 C40.36098089 69.14343394 38.77425684 66.2279598 37.1875 63.3125 C36.64029297 62.30509766 36.09308594 61.29769531 35.52929688 60.25976562 C34.73168945 58.79506836 34.73168945 58.79506836 33.91796875 57.30078125 C33.18743286 55.95753784 33.18743286 55.95753784 32.44213867 54.5871582 C31.44453584 52.79748541 30.39936708 51.0338099 29.31762695 49.29370117 C28 47 28 47 28 45 C21.73 45 15.46 45 9 45 C9 54.9 9 64.8 9 75 C6.03 75 3.06 75 0 75 C0 50.25 0 25.5 0 0 Z " fill="#0A0A0A" transform="translate(186,95)"/>
<path d="M0 0 C9 0 9 0 11.4609375 2.0625 C12.09257813 3.031875 12.72421875 4.00125 13.375 5 C13.73891846 5.53689453 14.10283691 6.07378906 14.4777832 6.62695312 C15.26533101 7.79359231 16.03976371 8.96917041 16.80224609 10.15234375 C18.42627109 12.65756617 20.1337197 15.10122161 21.83764648 17.55249023 C23.22234542 19.55027345 24.59260391 21.55738451 25.9609375 23.56640625 C29.93617113 29.38643394 33.99593546 35.14733514 38.0534668 40.91015625 C38.60945557 41.70164063 39.16544434 42.493125 39.73828125 43.30859375 C40.22337158 43.99751709 40.70846191 44.68644043 41.20825195 45.39624023 C43.84938812 49.23432679 46.41563823 53.12345735 49 57 C49.33 38.19 49.66 19.38 50 0 C52.97 0 55.94 0 59 0 C59 24.42 59 48.84 59 74 C50 74 50 74 47.49609375 71.74609375 C46.81675781 70.65425781 46.13742188 69.56242187 45.4375 68.4375 C44.60287025 67.15149406 43.76682676 65.86640501 42.9296875 64.58203125 C42.47303711 63.85967285 42.01638672 63.13731445 41.54589844 62.39306641 C39.17732438 58.72648983 36.65714004 55.1694965 34.14916992 51.59741211 C32.06597759 48.62995375 29.99776804 45.65258687 27.93359375 42.671875 C25.49710025 39.15518892 23.05294308 35.64421191 20.59765625 32.140625 C19.60663018 30.71884803 18.61573479 29.29697996 17.625 27.875 C17.17906494 27.24287598 16.73312988 26.61075195 16.27368164 25.95947266 C14.04741726 22.75016529 12.27075489 19.70054996 11 16 C10.34 16 9.68 16 9 16 C9 35.47 9 54.94 9 75 C6.03 75 3.06 75 0 75 C0 50.25 0 25.5 0 0 Z " fill="#090909" transform="translate(109,95)"/>
<path d="M0 0 C7.29216263 3.72365752 12.27742173 8.71653417 16.01953125 16.03125 C16.89453125 19.59375 16.89453125 19.59375 17.01953125 22.03125 C13.86376134 22.59928858 11.15244018 22.79650152 8.01953125 22.03125 C6.04760938 19.94101282 4.77574622 17.79219937 3.359375 15.296875 C1.04973576 11.39136258 -1.74664213 9.44252554 -5.98046875 8.03125 C-14.06763421 7.26519955 -21.52092389 6.77321445 -28.17578125 12.046875 C-36.05889819 20.71489103 -36.52612956 30.99768552 -36.10791016 42.08691406 C-35.61822256 49.55793323 -33.05001093 55.04547212 -27.85546875 60.40234375 C-22.63972444 64.93352162 -17.34811134 65.5365631 -10.69140625 65.30859375 C-4.95035045 64.72125231 -0.74937121 63.2026834 3.33203125 59.03125 C6.86832945 54.55065419 7.79859684 49.52545486 9.01953125 44.03125 C2.41953125 44.03125 -4.18046875 44.03125 -10.98046875 44.03125 C-10.98046875 41.39125 -10.98046875 38.75125 -10.98046875 36.03125 C-1.41046875 36.03125 8.15953125 36.03125 18.01953125 36.03125 C18.01953125 48.75458739 17.99157118 58.17530366 9.03125 67.3046875 C1.13228166 74.08399625 -6.60316002 74.90492989 -16.68359375 74.453125 C-24.76279981 73.82732053 -31.34190856 70.92610838 -36.98046875 65.03125 C-45.36178314 53.66396366 -47.59338039 40.89010513 -45.98046875 27.03125 C-43.90680735 17.15380973 -39.69366582 9.5893926 -31.98046875 3.03125 C-22.61781832 -3.05366146 -10.42657444 -4.17836749 0 0 Z " fill="#0A0A0A" transform="translate(75.98046875,95.96875)"/>
<path d="M0 0 C3.3 -0.0825 6.6 -0.165 10 -0.25 C11.02351562 -0.28641602 12.04703125 -0.32283203 13.1015625 -0.36035156 C19.27518768 -0.43441595 23.86181727 0.46025569 29 4 C31.9279076 7.11090183 32.21396135 9.80623915 32.375 13.9375 C32.2187775 18.31823916 31.60170106 21.35761851 29 25 C23.51115688 29.96523638 18.25456025 29.47652617 11.125 29.25 C7.45375 29.1675 3.7825 29.085 0 29 C0 19.43 0 9.86 0 0 Z " fill="#FCFCFC" transform="translate(196,103)"/>
</svg>
