<svg width="32" height="32" viewBox="0 0 32 32" fill="none" xmlns="http://www.w3.org/2000/svg">
<circle cx="16" cy="16" r="16" fill="white"/>
<path d="M11.604 2C10.3939 2 6.3525 4.16392 5.55366 5.02985C4.69493 5.96071 4.17781 6.74501 3.53688 8.05971C2.91192 9.34168 2.77685 10.1078 2.32681 11.5945C1.48765 14.3668 1.41528 16.2736 1.92346 19.1692C2.42256 22.013 3.15661 23.6093 4.74695 25.7339C5.82406 27.1728 6.47092 28.173 7.9738 28.7637C9.32639 29.2954 11.604 28.7637 11.604 28.7637V17.6542H6.76373" stroke="black"/>
<path d="M13 29L12.5 2L19.5 29V2.5" stroke="black"/>
<path d="M21 29.5V14.5M21 14.5V3C21 3 25.0184 3.25984 26.5 5C28.2767 7.08671 28.5017 9.70741 27 12C25.6091 14.1234 21 14.5 21 14.5ZM21 14.5L28 26.5" stroke="black"/>
</svg>
